<svg width="40" height="40" viewBox="0 0 40 40" fill="none" xmlns="http://www.w3.org/2000/svg">
<g clip-path="url(#clip0_1385_110283)">
<rect width="40" height="40" rx="20" fill="#FDEA6B"/>
<path fill-rule="evenodd" clip-rule="evenodd" d="M4.98994 39.8345L33.8218 42.1233L33.852 42.3193C34.3351 45.4657 34.5792 47.6004 34.5841 48.7232L34.5842 48.7576C34.5842 49.871 34.926 51.6417 35.6095 54.0697L35.6518 54.2192L4.9497 54.2727L4.58752 46.9643L4.98994 39.8345ZM22.0591 24.1521C23.2315 24.21 24.413 24.7126 24.5042 25.0338C24.7075 25.7491 25.0343 28.8114 26.1091 29.2819C27.184 29.7523 29.4786 29.3234 30.1347 30.447C30.7907 31.5705 32.9453 36.1505 32.9453 37.2176C32.9453 37.9291 25.9238 38.1761 11.881 37.9585C12.0603 32.2281 12.8077 29.2158 14.1232 28.9216L14.2406 28.8956C16.1431 28.4801 17.2801 28.4667 17.9291 27.7967C18.5913 27.1132 18.7115 25.9398 18.9862 25.0338C19.1376 24.5346 20.6206 24.0811 22.0591 24.1521Z" fill="#D08B5B"/>
<path fill-rule="evenodd" clip-rule="evenodd" d="M24.6301 25.9431C24.6345 25.9397 24.639 25.9387 24.6438 25.9411C24.7351 25.985 24.754 26.0727 24.7854 26.1641C24.8313 26.2977 24.8844 26.4281 24.9335 26.5604C25.0313 26.826 25.1246 27.0912 25.2337 27.3524C25.3456 27.6212 25.4615 27.8852 25.5943 28.1448C25.6582 28.2703 25.7271 28.3934 25.7971 28.5158C25.8454 28.6007 25.8904 28.7174 25.954 28.7971C25.9588 28.7717 25.9657 28.7476 25.9737 28.725C25.9653 28.7291 25.9572 28.7335 25.9496 28.7383C25.9335 28.7484 25.9142 28.7283 25.9238 28.7126C25.9584 28.6554 26.0035 28.6168 26.055 28.5906C26.1975 28.4325 29.3375 29.1872 30.1959 30.0349C31.7505 31.5701 32.7999 33.4683 33.49 35.4876C33.8711 36.6019 34.222 37.727 34.5846 38.8474C34.9677 40.0321 35.3677 41.2116 35.7516 42.3955C35.8357 42.6558 35.6522 42.8924 35.4204 42.9782C34.9886 43.1375 34.5536 43.2876 34.115 43.4264C34.3279 44.2438 34.4768 45.0784 34.5838 45.9154C34.8047 47.6413 34.8325 49.4023 35.1806 51.1102C35.2605 51.5021 35.3617 51.8886 35.4685 52.274L35.4933 52.3629C35.5568 52.589 35.6148 52.8172 35.6929 53.0385C35.7601 53.2289 35.847 53.4208 35.8941 53.6172C35.9492 53.8482 35.8679 54.1005 35.6518 54.2192C35.4784 54.3146 35.2301 54.2751 35.1255 54.0961C35.1041 54.0595 35.0912 54.0196 35.086 53.9794C35.0703 53.946 35.0558 53.9118 35.043 53.8768C35.0379 53.8633 35.0335 53.8493 35.0293 53.8353L35.0168 53.7935C34.9862 53.6937 34.958 53.5931 34.9299 53.4924C34.884 53.331 34.8378 53.1702 34.7868 53.0102L34.7609 52.9303C34.6345 52.5456 34.5214 52.1576 34.4228 51.7649C34.07 50.3566 33.9952 48.8985 33.8983 47.4552L33.8933 47.3806C33.8055 46.0872 33.7532 44.7967 33.8607 43.5061L33.846 43.5109L33.8313 43.5154C33.6917 43.558 33.5516 43.5999 33.4112 43.6405C33.4067 43.6421 33.4027 43.6438 33.3983 43.645C33.3084 43.6728 33.216 43.6992 33.1221 43.7238L33.0655 43.7383L33.0257 43.7492L32.9837 43.7611C32.8506 43.7997 32.7149 43.8441 32.577 43.8397C32.3484 43.8763 32.1158 43.8985 31.8872 43.8993C31.9576 45.0506 32.0389 46.2011 32.1359 47.3504C32.2333 48.5057 32.3625 49.6566 32.4965 50.8075C32.5625 51.3761 32.6333 51.9436 32.7114 52.5102C32.7508 52.7975 32.7918 53.0832 32.8442 53.3681C32.8981 53.6594 32.9935 53.9709 32.9359 54.2655C32.9347 54.2651 32.9335 54.2647 32.9323 54.2647C32.913 54.35 32.8615 54.4265 32.7717 54.4792C32.6071 54.5753 32.377 54.519 32.2824 54.3508C32.2743 54.3367 32.2667 54.3222 32.2595 54.3073C32.1625 54.3488 32.0562 54.3649 31.9259 54.3661L30.1576 54.3838C29.354 54.3918 28.5504 54.4003 27.7464 54.412C25.2221 54.4492 22.6978 54.4921 20.1735 54.5226L19.2269 54.5335C17.8071 54.5484 16.3866 54.5778 14.9669 54.5774C14.2567 54.5774 13.5472 54.5749 12.8369 54.5576C12.4929 54.5492 12.1496 54.5359 11.8059 54.5218L11.7453 54.5191C11.4709 54.5055 11.1796 54.4801 10.9114 54.5415C10.8373 54.6856 10.6482 54.7154 10.5492 54.5681C10.323 54.2311 10.2612 53.7609 10.2194 53.349L10.2047 53.2007C10.1584 52.7391 10.1178 52.2776 10.0876 51.8152C9.98058 50.177 9.94154 48.5371 9.99064 46.8957C10.0156 46.059 10.0924 45.2273 10.1834 44.3955C10.212 44.1359 10.2417 43.8767 10.2739 43.618L10.2745 43.526C10.2745 43.4966 10.2743 43.4685 10.2735 43.4421L10.2655 43.1925C10.2588 42.9844 10.2527 42.7761 10.2501 42.5679L10.249 42.4429L10.2478 42.2104C10.049 42.1914 9.83692 42.1254 9.66549 42.0937C9.38746 42.0417 9.11015 41.9858 8.8337 41.9266C8.27997 41.8075 7.73229 41.6667 7.18822 41.511L7.07251 41.4777C6.57049 41.3331 6.06155 41.1788 5.58661 40.9625C5.4007 40.8776 5.21518 40.7818 5.05221 40.6562C5.04255 40.7882 5.02766 40.9198 5.01881 41.0506C5.00114 41.3093 4.98017 41.5673 4.96287 41.826L4.94632 42.0722C4.91914 42.4824 4.89466 42.8922 4.88359 43.3037C4.8345 45.0985 4.82605 46.9009 4.92102 48.6945C4.9681 49.5922 5.0353 50.49 5.13229 51.3842C5.17977 51.824 5.23007 52.2651 5.29205 52.7033C5.35603 53.1536 5.47152 53.6011 5.50693 54.0546C5.54074 54.492 4.87192 54.5556 4.76207 54.1556C4.63052 53.676 4.59701 53.1586 4.52767 52.6654L4.51981 52.6108C4.44295 52.0868 4.38138 51.5609 4.32826 51.0341C4.14487 49.2172 4.09728 47.391 4.19345 45.5673C4.23918 44.6938 4.3476 43.8238 4.47882 42.9595L4.49406 42.8598C4.55379 42.4728 4.60971 42.0858 4.67736 41.7004L4.70331 41.556C4.76408 41.2248 4.81076 40.8647 4.90935 40.5335L4.88004 40.5065C4.82525 40.4554 4.76587 40.3964 4.72263 40.3327C4.57374 40.3126 4.44697 40.2055 4.46267 40.0112C4.51378 39.3725 4.74718 38.723 4.95522 38.1202C5.16408 37.5142 5.40633 36.9194 5.68078 36.3399C6.64617 34.3033 8.03651 32.4542 9.73671 30.9729C10.6385 30.187 11.6269 29.49 12.719 28.9938C13.2574 28.7488 13.8144 28.5592 14.3979 28.457C14.6868 28.4063 14.9786 28.3669 15.2723 28.3584C15.5107 28.2177 15.7936 28.2769 16.0244 28.4312L16.0369 28.4397H16.0374L16.0965 28.4514C16.111 28.4542 16.1106 28.4771 16.0965 28.4804C16.0957 28.4804 16.0945 28.4808 16.0937 28.4812C16.1315 28.5109 16.1673 28.5427 16.2007 28.5769C16.311 28.6896 16.3106 28.8256 16.2538 28.9355C16.5914 29.2486 16.8047 29.6506 17.0281 30.0558C17.2675 30.4896 17.581 30.8647 17.9625 31.181C19.3609 32.3407 21.4176 32.8538 23.1697 32.3061C24.4582 31.9037 25.5588 30.8144 25.8631 29.5029C25.791 29.5287 25.713 29.5327 25.6389 29.5061C25.2912 29.3822 25.1586 29.0021 25.0256 28.6844L25.0192 28.6691C24.8892 28.3613 24.7802 28.0486 24.6941 27.7258C24.6072 27.3999 24.556 27.0558 24.5347 26.7194C24.5265 26.5864 24.5301 26.4534 24.537 26.3203L24.5431 26.2104C24.5478 26.1107 24.5463 26.0089 24.6301 25.9431ZM18.9725 25.0462C18.9774 25.0341 18.9963 25.0276 19.0035 25.0421C19.3113 25.6771 19.1094 26.5472 18.8184 27.1528C18.5138 27.7862 18.055 28.2667 17.5114 28.6824C17.4365 28.7395 17.3596 28.7959 17.2816 28.851C16.828 29.1713 16.424 28.3077 16.9476 28.1427C17.4933 27.8655 17.9367 27.3713 18.2449 26.8522C18.4116 26.5717 18.5593 26.2796 18.6723 25.9729C18.785 25.6671 18.8526 25.3488 18.9725 25.0462Z" fill="black"/>
<path fill-rule="evenodd" clip-rule="evenodd" d="M28.4995 17.3869C28.3504 16.1949 27.8822 14.9293 27.3898 13.8181C26.2825 11.4685 23.7475 11.145 21.475 10.6606C19.2325 10.3334 16.8579 10.038 14.6492 10.6908C13.4075 10.9956 12.9225 12.4775 13.1185 13.647C13.2303 14.3757 13.5613 15.0654 13.8436 15.7408C14.4046 17.1278 14.7606 18.6126 14.7612 20.1143C14.7227 21.0956 14.5844 22.2157 15.7098 22.6314C16.7806 23.165 16.8711 24.6116 18.212 25.4324C18.7542 26.5329 20.2311 26.6298 21.2941 26.8851C21.9659 27.0139 22.6454 27.1088 23.3267 27.17C25.2994 27.4233 26.8776 26.8505 27.9102 25.0895C28.6013 24.0177 29.1159 22.7802 28.9888 21.4813C28.8621 20.1135 28.6512 18.7528 28.4995 17.3869Z" fill="#D08B5B"/>
<path fill-rule="evenodd" clip-rule="evenodd" d="M21.492 7.80514C21.6046 7.67725 21.7781 7.72111 21.8834 7.82224C21.9519 7.84248 22.0184 7.87258 22.0811 7.91242C22.2228 7.89419 22.3715 7.89419 22.5105 7.8993C22.5442 7.88035 22.5804 7.86349 22.6197 7.849C22.9008 7.74602 23.1497 7.79834 23.3551 7.9362C23.454 7.84244 23.5787 7.78361 23.7382 7.7925C23.8806 7.80047 23.982 7.86759 24.069 7.956C24.1557 7.83073 24.2958 7.74135 24.4704 7.72892C24.7144 7.71154 24.949 7.8096 25.1435 7.96143C25.2568 7.83121 25.4112 7.75636 25.5833 7.75564C25.6965 7.73504 25.8161 7.74316 25.924 7.77584C26.0808 7.82329 26.2185 7.91218 26.3281 8.02755C26.5015 7.86111 26.7138 7.74135 26.9586 7.75882C27.2755 7.78176 27.5381 8.0152 27.6602 8.30252C27.8746 8.3886 28.0726 8.51137 28.238 8.68642C28.2469 8.69564 28.2553 8.7053 28.2641 8.715C28.3533 8.74795 28.4372 8.79467 28.5111 8.8562C28.7452 9.05141 28.7974 9.33391 28.7199 9.61073C28.7307 9.65504 28.74 9.70011 28.7484 9.74514C28.9677 9.77854 29.1668 9.90534 29.2801 10.1118C29.4351 10.3951 29.4046 10.7685 29.2367 11.0389C29.1645 11.1553 29.073 11.2533 28.9701 11.339C29.0864 11.6038 29.0306 11.9198 28.843 12.134C28.7973 12.2078 28.7412 12.2744 28.6781 12.3348C28.7478 12.6085 28.6238 12.891 28.3765 13.0373L28.3553 13.0903C28.3518 13.0991 28.3482 13.1079 28.3444 13.1166C28.3417 13.1279 28.3383 13.1388 28.335 13.1498C28.3291 13.2469 28.2972 13.3422 28.2338 13.4321C28.1041 13.6161 27.9433 13.7362 27.858 13.9511L27.8495 13.9736C27.8128 14.0753 27.6944 14.1471 27.5935 14.1157C28.1536 15.2682 28.4472 16.5507 28.6488 17.8075C28.7493 18.4345 28.8269 19.0637 28.8898 19.6953L28.9515 20.3242C29.0058 20.8833 29.0541 21.4442 29.0544 22.0051C29.0552 23.274 28.693 24.4944 27.9156 25.5041C27.1803 26.4586 26.1398 27.1504 24.9645 27.4228C23.7509 27.7037 22.3274 27.593 21.2391 26.95C20.9183 26.7609 21.1994 26.3061 21.5258 26.4583C22.1439 26.7464 22.7719 26.9605 23.457 27.0084C24.1248 27.0554 24.7942 26.9717 25.4275 26.7528C26.4751 26.3903 27.3666 25.6309 27.9397 24.6852C28.222 24.2192 28.4264 23.7134 28.5352 23.1789C28.6706 22.5128 28.6502 21.8243 28.6005 21.1497L28.597 21.1037C28.4986 19.8039 28.3689 18.496 28.1593 17.2092C27.974 16.0712 27.6891 14.9562 27.3192 13.866C27.1743 13.7382 27.0123 13.6324 26.8388 13.5521C25.5688 13.4989 24.2965 13.5145 23.0281 13.6023C21.9464 13.6777 20.8699 13.8052 19.8015 13.991L19.6871 14.0112C19.4506 14.0534 19.1879 14.0775 18.9651 14.1729C18.7739 14.255 18.6964 14.4128 18.6482 14.6067C18.527 15.0973 18.5085 15.6341 18.488 16.1371C18.4679 16.6288 18.5133 17.1247 18.474 17.6148C18.4406 18.0248 18.3358 18.4445 18.0326 18.7412C17.874 18.8964 17.6789 18.9814 17.4957 19.0993C17.3773 19.1754 17.3271 19.2538 17.3423 19.3946C17.3753 19.7029 17.623 20.0912 17.3447 20.3552C17.2958 20.4015 17.211 20.4075 17.1628 20.3552C17.048 20.2301 16.8894 20.1347 16.7532 20.0337C16.6962 19.9919 16.7436 19.9106 16.8083 19.9395C16.8934 19.9778 16.9801 20.0228 17.0689 20.0623C16.8729 19.9005 16.5942 19.8212 16.3621 19.7741C16.2453 19.7508 16.1224 19.7439 16.0007 19.7548C15.9108 19.7979 15.8188 19.8377 15.7268 19.8767C15.61 19.9259 15.4919 19.9705 15.3731 20.0128C14.9607 20.3496 14.7639 20.8973 14.8498 21.4329C14.8968 21.7286 15.0329 22.0502 15.2895 22.2228C15.5935 22.4273 16.0007 22.3395 16.3292 22.4913C16.6368 22.6333 16.8239 22.9202 16.9641 23.2172L17.0225 23.3409C17.1526 23.6146 17.2863 23.8811 17.464 24.1303C17.6696 24.4188 17.9214 24.6779 18.1961 24.9005C18.3293 25.0082 18.4713 25.1051 18.6181 25.1934L18.6583 25.2172C18.8068 25.3045 18.9133 25.3878 18.9233 25.5725C18.9265 25.6369 18.886 25.6956 18.8338 25.729C18.6089 25.8719 18.3852 25.6932 18.1981 25.5685C17.9961 25.4341 17.8029 25.2828 17.6242 25.1178C17.2845 24.8047 16.9906 24.4329 16.7645 24.0292C16.5922 23.7218 16.4942 23.2892 16.222 23.051C16.0557 22.9057 15.8208 22.9045 15.6132 22.8779C15.42 22.853 15.2373 22.8128 15.0655 22.7174C14.3663 22.3283 14.1688 21.3862 14.3346 20.6583C14.3627 20.5355 14.4021 20.416 14.4507 20.3009C14.1905 20.3443 13.8981 20.0748 14.0037 19.8027C14.0118 19.7822 14.021 19.7629 14.0298 19.7431C13.8584 19.6301 13.723 19.4587 13.6588 19.2345C13.6258 19.1186 13.621 19.0015 13.6383 18.8884C13.5552 18.8325 13.4865 18.7556 13.4423 18.661C13.3042 18.5971 13.1817 18.5013 13.1086 18.3645C13.0074 18.1757 13.0203 18.0019 13.0974 17.8453C13.0865 17.8257 13.0761 17.8055 13.0661 17.785C12.783 17.6051 12.5854 17.2952 12.6079 16.9516C12.6151 16.8377 12.6432 16.7351 12.6866 16.6426C12.683 16.6309 12.6794 16.6188 12.6761 16.6071C12.4392 16.4864 12.2433 16.288 12.1734 16.0232C12.1035 15.7568 12.1858 15.4912 12.3505 15.2868C12.1095 15.1102 11.9646 14.8635 12.0525 14.4904C12.0883 14.3387 12.1601 14.2007 12.2573 14.0844C12.2569 14.0808 12.2561 14.0772 12.2553 14.0735L12.2328 14.056C11.9353 13.8208 11.7643 13.521 11.9469 13.1524C12.0288 12.9866 12.1457 12.8711 12.283 12.795L12.2898 12.7733C12.1915 12.562 12.1581 12.3274 12.226 12.0808C12.2814 11.8776 12.4127 11.7158 12.5806 11.6084C12.5693 11.5174 12.5709 11.4204 12.589 11.3154C12.6191 11.1379 12.7071 10.983 12.8356 10.8731C12.8404 10.8498 12.8464 10.8269 12.8532 10.8039C12.8966 10.6635 12.9777 10.511 13.0717 10.3979C13.1492 10.3041 13.2359 10.2699 13.3419 10.2663C13.3355 10.1798 13.3399 10.092 13.3576 10.0031C13.4118 9.72868 13.5861 9.47069 13.8443 9.35359C13.9503 9.3057 14.0619 9.29166 14.1696 9.30329C14.2611 9.11013 14.4398 8.97013 14.6595 8.93995C14.745 8.92787 14.8245 8.92864 14.8976 8.93954C14.939 8.92019 14.9819 8.90292 15.0269 8.88719C15.0566 8.87673 15.0867 8.86707 15.1169 8.85745C15.2185 8.73109 15.3522 8.63005 15.5084 8.56932C15.6887 8.4989 15.8722 8.5061 16.0348 8.56526L16.0866 8.55439C16.1678 8.41355 16.2971 8.30449 16.4958 8.255C16.7215 8.19906 16.9532 8.27713 17.1307 8.41922C17.1315 8.41922 17.1323 8.41922 17.1335 8.41878C17.2263 8.21073 17.3849 8.06586 17.6511 8.07592C17.817 8.08236 17.9668 8.1649 18.0824 8.2824C18.1467 8.27431 18.2109 8.26707 18.2756 8.25987C18.3438 8.17974 18.4197 8.10494 18.5037 8.03773C18.641 7.92743 18.8197 7.93632 18.9209 8.09162C18.943 8.12542 18.9635 8.15962 18.9839 8.19383L19.0767 8.18739C19.1859 8.0397 19.3349 7.93991 19.5389 7.9319C19.726 7.92421 19.8594 8.016 19.9609 8.14433C20.0437 8.14232 20.1268 8.14075 20.2099 8.1395C20.3067 8.02723 20.4207 7.92824 20.5508 7.84614C20.6504 7.78337 20.7974 7.80473 20.8781 7.88844C20.9327 7.94534 20.9834 8.00473 21.0306 8.06622C21.1522 7.92956 21.3165 7.83954 21.492 7.80514ZM15.5819 20.5838C15.7694 20.4768 16.0216 20.5926 16.2031 20.6836C16.4244 20.7943 16.644 20.9613 16.7793 21.1705C16.9637 21.4554 16.5304 21.6856 16.3364 21.4301C16.2172 21.2727 16.122 21.1142 15.9774 20.9766C15.8453 20.8502 15.6538 20.7657 15.5779 20.5991C15.575 20.5935 15.5759 20.587 15.5819 20.5838ZM15.7136 13.6683L15.7171 13.6582C15.7705 13.512 15.5377 13.449 15.4848 13.594C15.4047 13.8138 15.4971 14.0527 15.7137 14.1476C15.7737 14.1739 15.8423 14.1647 15.8785 14.1043C15.9089 14.0533 15.8948 13.9651 15.8353 13.9391C15.7134 13.8857 15.6726 13.7914 15.7136 13.6683ZM13.7085 13.2595C13.825 13.1564 13.6541 12.9862 13.5381 13.0888C13.43 13.1845 13.3497 13.3144 13.3706 13.4639C13.3918 13.6163 13.5065 13.7239 13.632 13.7999C13.765 13.8805 13.8862 13.6718 13.7535 13.5914L13.7386 13.5822C13.683 13.5476 13.6178 13.4999 13.6084 13.4318C13.5984 13.3593 13.6595 13.3028 13.7085 13.2595ZM14.3698 11.4417L14.3781 11.4356C14.5032 11.3461 14.383 11.1366 14.2564 11.2271C14.1404 11.3101 14.0473 11.418 14.0375 11.5667C14.028 11.7113 14.1014 11.8366 14.1974 11.9383C14.3041 12.0514 14.4743 11.8804 14.3677 11.7676C14.2639 11.6575 14.2436 11.5375 14.3698 11.4417Z" fill="black"/>
<path fill-rule="evenodd" clip-rule="evenodd" d="M25.8242 23.2922C25.8522 23.2847 25.8768 23.3222 25.8536 23.3427C25.7589 23.4267 25.6987 23.5834 25.6296 23.6901C25.5638 23.7917 25.5005 23.8922 25.4426 23.9985C25.3778 24.1177 25.3152 24.2364 25.2647 24.3625L25.2548 24.3879C25.2699 24.4239 25.2817 24.4594 25.2904 24.4826L25.2929 24.4892C25.3791 24.7094 25.1982 24.954 24.9941 25.0155C24.6451 25.1208 24.3456 24.8341 24.3372 24.4932C24.3307 24.2251 24.5125 23.9861 24.6972 23.8088C24.8587 23.6538 25.0397 23.5218 25.242 23.4251C25.3313 23.3825 25.4241 23.3468 25.521 23.3261C25.6202 23.305 25.7271 23.3185 25.8242 23.2922ZM25.1664 24.2641C25.192 24.2761 25.2138 24.3056 25.2322 24.3401C25.223 24.3109 25.2041 24.2818 25.1664 24.2641ZM25.3848 20.538C25.6887 20.7227 26.1517 21.1534 25.8248 21.6113C25.44 22.0151 24.886 21.5521 24.6129 21.3428C24.3598 21.1805 24.0754 21.5978 24.3102 21.7873C26.283 23.2479 27.0836 20.5863 25.5385 20.3208C25.3683 20.2915 25.3052 20.4808 25.3848 20.538ZM22.8869 18.7643L22.9405 18.7598C23.1734 18.7393 23.4092 18.708 23.6389 18.7607C23.9474 18.8315 23.9248 19.2804 23.6389 19.3629C23.3869 19.4356 23.1077 19.4042 22.8475 19.4067C22.8066 19.4071 22.7658 19.4081 22.7249 19.4088C22.7168 19.5061 22.6849 19.5899 22.6361 19.6737C22.6011 19.7338 22.5564 19.7909 22.5125 19.8443C22.408 19.9712 22.1616 19.9684 22.0562 19.8443C21.9782 19.7525 21.9161 19.6469 21.9151 19.5226C21.9148 19.4907 21.9187 19.4569 21.9263 19.4237L21.7843 19.4262C21.4368 19.4315 21.0867 19.4291 20.7455 19.3739C20.6241 19.399 20.5248 19.18 20.6923 19.1145C21.1477 18.9364 21.6565 18.8839 22.1398 18.8304C22.3881 18.8029 22.6378 18.784 22.8869 18.7643ZM26.7666 18.5803L26.779 18.579C27.0804 18.5482 27.4125 18.4947 27.7145 18.5255C28.1654 18.5713 28.1646 19.1808 27.7145 19.2264C27.5493 19.2431 27.3752 19.235 27.2016 19.219C27.2903 19.4072 27.1851 19.6321 26.9713 19.6608C26.7726 19.6875 26.5667 19.4944 26.6318 19.2873L26.6349 19.2782C26.6476 19.2423 26.659 19.2021 26.6726 19.1625L26.6007 19.1564C26.3858 19.1374 26.0875 19.0986 26.0084 18.9289C25.9845 18.8778 25.99 18.8303 26.0268 18.7866C26.1774 18.6072 26.5488 18.6013 26.7666 18.5803ZM23.5619 17.1848C23.78 17.1055 24.0067 17.291 24.035 17.4999C24.0676 17.7408 23.8939 17.8993 23.6738 17.9281L23.6627 17.9294C23.1767 17.9829 22.6945 18.0808 22.2079 18.1361C21.9869 18.1612 21.7642 18.1777 21.5417 18.1837L21.3827 18.1872C21.1879 18.1922 20.9789 18.1966 20.799 18.1295L20.7997 18.1283C20.752 18.1145 20.73 18.0456 20.7831 18.0079C20.9747 17.8725 21.2328 17.8213 21.4557 17.757C21.6799 17.6922 21.9057 17.6325 22.1321 17.5765C22.6075 17.4589 23.1013 17.3521 23.5619 17.1848ZM25.5735 17.2411C25.6313 16.9364 26.0628 16.9037 26.2214 17.1254C26.3238 17.1606 26.474 17.1973 26.5671 17.2249C26.7293 17.273 26.8916 17.3208 27.0542 17.3671C27.3911 17.463 27.7197 17.5847 28.0509 17.698C28.085 17.7097 28.0756 17.753 28.0428 17.7573C27.5807 17.8175 27.1262 17.8455 26.6612 17.8262L26.5659 17.8219C26.1562 17.8059 25.4606 17.8364 25.5735 17.2411Z" fill="black"/>
<path fill-rule="evenodd" clip-rule="evenodd" d="M21.7998 24.6758C22.1256 23.9125 22.8367 23.3516 23.6554 23.1465C24.2566 22.9963 24.8876 23.0011 25.5004 23.0607C25.8215 23.0917 26.1659 23.1171 26.4686 23.2364C26.727 23.3382 26.9376 23.5308 27.0959 23.7568C27.2844 24.0247 27.4126 24.3312 27.5026 24.6455C27.5154 24.6901 27.5274 24.7351 27.5386 24.7804C27.4995 25.0175 27.4164 25.2192 27.1968 25.3683C26.9825 25.5138 26.7268 25.5734 26.4719 25.5945C26.4469 25.5825 26.4228 25.5702 26.4006 25.5575C26.0035 25.3302 25.7239 24.7929 25.2226 24.8656C24.7752 24.9305 24.4807 25.4934 24.2147 25.8235C23.3607 25.923 22.5073 25.6664 21.8125 25.1781C21.7772 25.0109 21.7752 24.8424 21.7998 24.6758ZM28.119 24.0968C28.0507 23.9051 27.9647 23.7194 27.8627 23.5445C27.5255 22.966 27.0079 22.5051 26.3934 22.2417C24.9398 21.6193 23.059 22.058 21.8851 23.0788C21.4841 23.4277 21.0787 23.9405 20.956 24.4921C20.9194 24.4994 20.8849 24.5184 20.8564 24.5452C20.0083 24.0113 19.1349 23.4975 18.4514 22.7573C17.9551 22.2195 17.6099 21.5831 17.3985 20.8837C17.3812 20.8261 17.2884 20.8346 17.2912 20.8982C17.292 20.9131 17.2928 20.928 17.2936 20.9429C17.2848 20.9155 17.243 20.9296 17.2398 20.9562C17.126 21.8058 16.9838 22.7066 17.1148 23.5606C17.1932 24.0702 17.4246 24.4433 17.7341 24.8461C18.0656 25.2779 18.441 25.6796 18.8248 26.0647C19.0683 26.3092 19.3227 26.5912 19.6209 26.7705C19.9677 26.9787 20.3612 27.1371 20.7313 27.2978C21.1079 27.4618 21.4901 27.6132 21.8795 27.7446C22.6579 28.008 23.4625 28.1901 24.2811 28.2699C24.9366 28.3335 25.6857 28.4028 26.3138 28.1563C26.7953 27.9673 27.1839 27.6258 27.4921 27.2148C27.8277 26.7672 28.093 26.2574 28.2396 25.7199C28.392 25.1614 28.1512 24.1868 28.119 24.0968Z" fill="black"/>
<path fill-rule="evenodd" clip-rule="evenodd" d="M27.5979 17.5453C28.5425 17.5453 29.0815 17.7484 29.279 17.7642L29.285 17.7647C29.3671 17.7699 29.4408 17.7768 29.5182 17.8067C29.8025 17.9162 29.8488 18.2144 29.6829 18.4023C29.6712 18.7912 29.7224 19.2456 29.6346 19.6357C29.5264 21.2804 28.7529 21.558 28.3132 21.6593C28.0925 21.7102 27.8309 21.7304 27.5964 21.6767C27.1964 21.6618 26.801 21.5366 26.4626 21.3185C25.9915 21.0146 25.6415 20.5475 25.5279 19.9932C25.4741 19.7289 25.4489 19.4539 25.4782 19.1853L25.4826 19.1483C25.3294 19.075 25.1519 19.0612 24.969 19.0547C24.8816 19.0516 24.7954 19.0488 24.7117 19.0525C24.6299 19.0617 24.5491 19.0738 24.468 19.0904C24.3795 19.1171 24.2959 19.1612 24.2187 19.231L24.2134 19.3329C24.1989 19.5875 24.1655 19.8428 24.1139 20.0926C24.0378 20.4611 23.9154 20.813 23.6548 21.0744C23.5666 21.2062 23.4575 21.3238 23.325 21.4256C22.8437 21.7962 22.1898 21.9322 21.5896 21.881C20.3712 21.777 19.667 20.8098 19.5047 20.3964L19.495 20.3714C19.3777 20.064 19.2843 19.6652 18.9138 19.5992L18.835 19.585C18.666 19.5533 18.51 19.5091 18.4109 19.3442C18.3674 19.2722 18.3451 19.1917 18.3396 19.1095C18.2818 19.114 18.224 19.1182 18.1665 19.1224C17.7074 19.2194 14.9537 19.3018 14.7339 19.3018C14.7339 19.3018 14.3114 19.4796 14.1331 19.3418C14.0094 19.246 13.9688 19.1183 14.0368 18.9737C14.1395 18.756 14.6133 18.6251 14.8237 18.5836C14.8237 18.5836 18.2186 18.6118 18.463 18.5655C18.6142 18.4096 18.8846 18.4309 19.1106 18.4063C19.2976 18.2729 19.5593 18.1836 19.7661 18.1238C19.8082 18.1078 19.8499 18.0924 19.8905 18.0778C20.2694 17.9429 20.6633 17.8714 21.0632 17.833C21.4756 17.7938 21.8892 17.8115 22.2992 17.8677C22.472 17.8911 22.6432 17.9214 22.8131 17.9611C23.1174 18.0012 23.42 18.0673 23.7244 18.1457L23.7853 18.1615C24.1059 18.2455 24.4353 18.3182 24.7672 18.2613C25.0373 18.2152 25.2971 18.1112 25.5462 17.9988L25.5787 17.9841C26.1264 17.734 26.9817 17.5453 27.5979 17.5453ZM22.7802 18.4597C22.5781 18.4152 22.4918 18.7268 22.6945 18.7714C22.8381 18.8029 22.9597 18.8753 23.0419 18.998L23.0506 19.0113C23.1609 19.1868 23.4398 19.0248 23.3288 18.8481C23.2038 18.6493 23.0096 18.5101 22.7802 18.4597ZM28.6991 18.2665C28.6279 18.2163 28.5201 18.2536 28.4787 18.3245C28.4332 18.4026 28.463 18.4895 28.5297 18.5406L28.5365 18.5456C28.5977 18.5887 28.6574 18.666 28.6648 18.7453L28.6655 18.7552C28.6735 18.9625 28.9957 18.9636 28.9877 18.7552C28.9798 18.5513 28.8618 18.381 28.6991 18.2665Z" fill="black"/>
</g>
<defs>
<clipPath id="clip0_1385_110283">
<rect width="40" height="40" rx="20" fill="white"/>
</clipPath>
</defs>
</svg>
